<svg xmlns="http://www.w3.org/2000/svg" viewBox="0 0 600 160"><g stroke="#d9a24f" stroke-width="1" stroke-opacity=".5" fill="none"><line x1="300" y1="150" x2="27.7" y2="117.3"/><line x1="300" y1="150" x2="40.4" y2="97.6"/><line x1="300" y1="150" x2="58.7" y2="78.9"/><line x1="300" y1="150" x2="82.4" y2="61.9"/><line x1="300" y1="150" x2="110.8" y2="46.8"/><line x1="300" y1="150" x2="143.4" y2="33.9"/><line x1="300" y1="150" x2="179.5" y2="23.6"/><line x1="300" y1="150" x2="218.1" y2="16.1"/><line x1="300" y1="150" x2="258.6" y2="11.5"/><line x1="300" y1="150" x2="300.0" y2="10.0"/><line x1="300" y1="150" x2="341.4" y2="11.5"/><line x1="300" y1="150" x2="381.9" y2="16.1"/><line x1="300" y1="150" x2="420.5" y2="23.6"/><line x1="300" y1="150" x2="456.6" y2="33.9"/><line x1="300" y1="150" x2="489.2" y2="46.8"/><line x1="300" y1="150" x2="517.6" y2="61.9"/><line x1="300" y1="150" x2="541.3" y2="78.9"/><line x1="300" y1="150" x2="559.6" y2="97.6"/><line x1="300" y1="150" x2="572.3" y2="117.3"/><path d="M120 150A180 90 0 0 1 480 150"/><path d="M170 150A130 66 0 0 1 430 150"/></g></svg>